<svg xmlns="http://www.w3.org/2000/svg" viewBox="0 0 280 180">
  <rect width="280" height="180" rx="8" fill="#e2e8f0" stroke="#64748b" stroke-width="2"/>
  <rect x="8" y="8" width="264" height="26" rx="4" fill="#0f172a"/>
  <text x="140" y="26" text-anchor="middle" font-family="system-ui,sans-serif" font-size="12" font-weight="800" fill="#f8fafc">COFFRET DC · local technique</text>
  <rect x="14" y="44" width="120" height="78" rx="4" fill="#fff" stroke="#94a3b8"/>
  <text x="74" y="62" text-anchor="middle" font-family="system-ui,sans-serif" font-size="10" font-weight="800" fill="#b45309">PARAFOUDRE DC</text>
  <text x="74" y="82" text-anchor="middle" font-family="system-ui,sans-serif" font-size="16" font-weight="800" fill="#0f172a">SPD</text>
  <text x="74" y="102" text-anchor="middle" font-family="system-ui,sans-serif" font-size="9" fill="#64748b">1000 V DC</text>
  <rect x="146" y="44" width="120" height="78" rx="4" fill="#fff" stroke="#94a3b8"/>
  <text x="206" y="62" text-anchor="middle" font-family="system-ui,sans-serif" font-size="10" font-weight="800" fill="#0f172a">POLARITÉ DC</text>
  <text x="176" y="88" text-anchor="middle" font-family="system-ui,sans-serif" font-size="12" font-weight="800" fill="#dc2626">PLUS</text>
  <text x="236" y="88" text-anchor="middle" font-family="system-ui,sans-serif" font-size="12" font-weight="800" fill="#111827">MOINS</text>
  <text x="206" y="108" text-anchor="middle" font-family="system-ui,sans-serif" font-size="9" fill="#64748b">+ / − (pas PE)</text>
  <g font-family="system-ui,sans-serif" font-size="8" font-weight="700" fill="#334155" text-anchor="middle">
    <text x="36" y="138">PV+</text>
    <text x="72" y="138">PV−</text>
    <text x="140" y="138">PE</text>
    <text x="188" y="138">PLUS</text>
    <text x="236" y="138">MOINS</text>
  </g>
  <g fill="#475569">
    <circle cx="36" cy="158" r="6"/>
    <circle cx="72" cy="158" r="6"/>
    <circle cx="140" cy="158" r="6"/>
    <circle cx="188" cy="158" r="6"/>
    <circle cx="236" cy="158" r="6"/>
  </g>
  <g font-family="system-ui,sans-serif" font-size="8" font-weight="700" fill="#334155" text-anchor="middle">
    <text x="248" y="52">OUT+</text>
    <text x="248" y="78">OUT−</text>
  </g>
  <circle cx="268" cy="46" r="5" fill="#475569"/>
  <circle cx="268" cy="72" r="5" fill="#475569"/>
</svg>
